<svg width="81" height="25" viewBox="0 0 81 25" fill="none" xmlns="http://www.w3.org/2000/svg">
<path d="M39.9175 9.4614V12.888H46.7884V16.2857H39.9175V21.6223H35.5125V6.05706H47.7246V9.45918L39.9175 9.4614Z" fill="#B4CBCC"/>
<path d="M54.1068 9.55035H49.3239V6.05706H63.2703V9.54812H58.5096V21.6223H54.1068V9.55035Z" fill="#B4CBCC"/>
<path d="M74.967 21.6223L71.7428 16.7971L68.563 21.6223H63.5355L69.2079 13.7507L63.7912 6.05706H68.752L71.8651 10.5487L74.9337 6.05706H79.6944L74.2666 13.5751L80.048 21.6245L74.967 21.6223Z" fill="#B4CBCC"/>
<path d="M14.8178 18.3559H8.17365V25H14.8178V18.3559Z" fill="#B4CBCC"/>
<path d="M8.17365 9.17685V15.821H22.9918V9.17685H8.17365Z" fill="#B4CBCC"/>
<path d="M28.7553 0H8.17365V6.64191H28.7553V0Z" fill="#B4CBCC"/>
<path d="M6.64191 9.17685H0V15.821H6.64191V9.17685Z" fill="#B4CBCC"/>
</svg>
