<svg width="130" height="30" viewBox="0 0 130 30" fill="none" xmlns="http://www.w3.org/2000/svg">
<path d="M102.281 15.0038C102.281 14.2378 102.281 13.5168 102.257 12.8517C102.24 12.2236 102.177 11.5976 102.07 10.9785C101.97 10.4136 101.793 9.86494 101.545 9.34771C101.283 8.81393 100.933 8.32825 100.509 7.91115C99.9081 7.29562 99.1931 6.80295 98.404 6.46064C97.5497 6.11464 96.6348 5.94319 95.7132 5.9564C94.7886 5.94449 93.8708 6.11587 93.0128 6.46064C92.2189 6.79859 91.5001 7.28889 90.895 7.90471C90.4721 8.32124 90.1231 8.80666 89.8629 9.3402C89.6163 9.85777 89.4423 10.4069 89.3458 10.972C89.2416 11.591 89.1818 12.2166 89.1666 12.8442C89.1486 13.5618 89.1415 14.2796 89.1452 14.9974C89.1506 15.7634 89.1452 16.4779 89.1666 17.1485C89.1818 17.776 89.2416 18.4016 89.3458 19.0206C89.442 19.5855 89.616 20.1343 89.8629 20.6514C90.1236 21.1856 90.4723 21.6706 90.895 22.089C91.4984 22.705 92.2183 23.1948 93.0128 23.5298C93.8703 23.8766 94.7884 24.0488 95.7132 24.0362C96.6351 24.0502 97.5502 23.8779 98.404 23.5298C99.1933 23.1918 99.9085 22.7019 100.509 22.0879C100.932 21.6695 101.281 21.1856 101.545 20.6524C101.793 20.1353 101.97 19.586 102.071 19.0217C102.176 18.4037 102.237 17.7793 102.253 17.1538C102.275 16.4844 102.283 15.7677 102.278 15.0028L102.281 15.0038ZM98.8084 15.0038C98.8084 15.8525 98.7966 16.5595 98.7677 17.1217C98.7505 17.583 98.7054 18.0443 98.6293 18.5003C98.5776 18.804 98.4848 19.0992 98.3535 19.3779C98.2473 19.6032 98.1078 19.8102 97.9405 19.9937C97.6819 20.2898 97.3611 20.5248 97.0007 20.6825C96.5953 20.8561 96.1585 20.9445 95.7175 20.9421C95.2745 20.9438 94.8358 20.8555 94.4279 20.6825C94.059 20.5279 93.7294 20.2925 93.4634 19.9937C93.295 19.8108 93.1557 19.6031 93.0504 19.3779C92.9229 19.0989 92.8348 18.8035 92.7886 18.5003C92.7148 18.0439 92.6686 17.5836 92.6502 17.1217C92.6226 16.4161 92.6101 15.71 92.6127 15.0038C92.6127 14.1552 92.6255 13.4471 92.6502 12.8849C92.6685 12.4236 92.7146 11.9623 92.7886 11.5063C92.8347 11.2038 92.9227 10.9076 93.0504 10.6287C93.156 10.4036 93.2953 10.196 93.4634 10.0129C93.7298 9.71451 94.0593 9.47922 94.4279 9.32411C94.8352 9.14911 95.2743 9.06069 95.7175 9.06448C96.1585 9.06018 96.5962 9.14816 97.0007 9.32411C97.3611 9.48182 97.6819 9.71677 97.9405 10.0129C98.1078 10.1963 98.2473 10.4045 98.3535 10.6287C98.4855 10.9076 98.5788 11.2027 98.6293 11.5063C98.7044 11.9623 98.7505 12.4225 98.7677 12.8849C98.7977 13.445 98.8084 14.1541 98.8084 15.0038ZM129.951 6.41666C129.951 6.33602 129.919 6.25885 129.862 6.20183C129.805 6.14481 129.727 6.11253 129.647 6.11196H126.782C126.701 6.11225 126.624 6.14444 126.567 6.20152C126.51 6.2586 126.478 6.33593 126.477 6.41666V16.9993L119.491 6.19779C119.444 6.12377 119.403 6.11196 119.299 6.11196H116.643C116.562 6.11307 116.485 6.14553 116.428 6.20243C116.371 6.25934 116.339 6.33619 116.338 6.41666V23.5889C116.339 23.6693 116.371 23.7462 116.428 23.803C116.485 23.8598 116.562 23.8919 116.643 23.8925H119.506C119.586 23.8919 119.663 23.8597 119.72 23.8029C119.776 23.746 119.808 23.6691 119.809 23.5889V12.9783L126.797 23.8056C126.845 23.8785 126.883 23.8914 126.988 23.8914H129.643C129.724 23.8911 129.801 23.8591 129.858 23.8022C129.915 23.7454 129.948 23.6683 129.948 23.5878L129.951 6.41666ZM110.747 6.41666C110.747 6.33593 110.715 6.2586 110.658 6.20152C110.601 6.14444 110.523 6.11225 110.443 6.11196H107.581C107.5 6.11225 107.423 6.14444 107.366 6.20152C107.309 6.2586 107.277 6.33593 107.277 6.41666V23.5878C107.277 23.7551 107.413 23.8914 107.581 23.8925H110.443C110.523 23.8922 110.601 23.86 110.658 23.8029C110.715 23.7458 110.747 23.6685 110.747 23.5878V6.41666ZM76.4844 15.0038C76.4844 14.1498 76.4951 13.4385 76.5198 12.8721C76.5369 12.4107 76.5831 11.9494 76.6571 11.4945C76.9221 9.9646 78.0937 9.06233 79.5881 9.06233C80.5644 9.07091 81.4485 9.43139 82.0128 10.2532C82.2703 10.6362 82.4559 11.0611 82.5653 11.5085C82.569 11.5314 82.5813 11.5521 82.5996 11.5664C82.6179 11.5807 82.6409 11.5876 82.664 11.5857H86.0328C86.0811 11.5857 86.0993 11.5524 86.0908 11.5052C85.7228 9.42066 84.6113 7.54745 82.6469 6.6205C81.681 6.17329 80.6267 5.9496 79.5624 5.96606C77.6656 5.96606 76.067 6.61514 74.7678 7.91437C74.0264 8.63739 73.5205 9.56734 73.3162 10.5826C73.1177 11.5814 73.0169 13.0555 73.0158 15.0028C73.0137 16.95 73.1134 18.423 73.3162 19.4219C73.519 20.4379 74.0243 21.3702 74.7646 22.0954C76.0627 23.3936 77.6602 24.0427 79.5581 24.0427C80.6223 24.0584 81.6765 23.8348 82.6426 23.3882C84.607 22.4613 85.7195 20.5881 86.0865 18.5046C86.095 18.4563 86.0779 18.4241 86.0296 18.4241H82.6587C82.6356 18.4216 82.6124 18.4279 82.5939 18.4419C82.5754 18.4559 82.5629 18.4763 82.5589 18.4992C82.4501 18.9465 82.2638 19.3714 82.0085 19.7545C81.4431 20.5816 80.5591 20.9389 79.5839 20.9453C78.0883 20.9453 76.9167 20.0441 76.6517 18.5153C76.5766 18.0593 76.5316 17.5991 76.5144 17.1367C76.4931 16.4259 76.4834 15.7149 76.4854 15.0038H76.4844ZM40.8997 6.41666C40.8995 6.33612 40.8674 6.25894 40.8106 6.20189C40.7537 6.14485 40.6767 6.11253 40.5961 6.11196H37.7327C37.6519 6.11225 37.5746 6.14444 37.5175 6.20152C37.4604 6.2586 37.4283 6.33593 37.428 6.41666V23.5889C37.4285 23.6694 37.4608 23.7465 37.5179 23.8033C37.575 23.8601 37.6521 23.8922 37.7327 23.8925H40.5951C40.6754 23.8919 40.7523 23.8597 40.8091 23.8029C40.8659 23.7461 40.8981 23.6692 40.8987 23.5889V18.5486L43.1957 15.802L47.9141 23.8013C47.932 23.8304 47.9574 23.8542 47.9875 23.8702C48.0177 23.8862 48.0516 23.8939 48.0858 23.8925H51.5629C51.7238 23.8925 51.7517 23.7927 51.6723 23.6564L45.4948 13.1832L51.1627 6.38447C51.2764 6.24715 51.2282 6.11626 51.049 6.11626H47.2489C47.2263 6.11491 47.2036 6.11921 47.183 6.12875C47.1624 6.1383 47.1445 6.15281 47.1309 6.17097L40.8997 13.6424V6.41666ZM61.7518 20.9464C60.1415 20.9464 58.6803 19.4551 58.6803 17.6742V6.41666C58.68 6.33593 58.6478 6.2586 58.5907 6.20152C58.5336 6.14444 58.4563 6.11225 58.3756 6.11196H55.5132C55.4326 6.11253 55.3556 6.14485 55.2987 6.20189C55.2419 6.25894 55.2098 6.33612 55.2095 6.41666V17.6302C55.2095 21.5504 58.1417 24.0427 61.7518 24.0427C65.362 24.0427 68.2941 21.5504 68.2941 17.6302V6.41666C68.2936 6.33602 68.2613 6.25885 68.2043 6.20183C68.1473 6.14481 68.0701 6.11253 67.9895 6.11196H65.126C65.0456 6.11281 64.9689 6.14525 64.9122 6.20227C64.8556 6.25929 64.8237 6.3363 64.8234 6.41666V17.6742C64.8234 19.453 63.3611 20.9464 61.7518 20.9464Z" fill="#B4CBCC"/>
<path fill-rule="evenodd" clip-rule="evenodd" d="M8.65905 15.0032L17.5445 23.8897L23.1534 18.2818C23.6368 17.8493 24.2675 17.6183 24.9159 17.6363C25.5643 17.6544 26.1811 17.9201 26.6397 18.3788C27.0983 18.8375 27.3638 19.4545 27.3817 20.1029C27.3995 20.7513 27.1684 21.3819 26.7357 21.8652L19.334 29.2668C18.8562 29.7367 18.213 30 17.5429 30C16.8728 30 16.2295 29.7367 15.7517 29.2668L5.07355 18.5865V24.9346C5.0599 25.5984 4.78664 26.2304 4.31239 26.695C3.83814 27.1596 3.20068 27.4198 2.53678 27.4198C1.87288 27.4198 1.23542 27.1596 0.761167 26.695C0.286915 26.2304 0.013651 25.5984 0 24.9346V5.06419C0 4.39125 0.267323 3.74588 0.743162 3.27004C1.219 2.7942 1.86438 2.52687 2.53731 2.52687C3.21025 2.52687 3.85563 2.7942 4.33147 3.27004C4.8073 3.74588 5.07463 4.39125 5.07463 5.06419V11.4123L15.7496 0.734126C16.2273 0.263688 16.8708 0 17.5413 0C18.2117 0 18.8552 0.263688 19.3329 0.734126L26.74 8.13579C27.1747 8.61881 27.4076 9.25024 27.3905 9.89989C27.3734 10.5495 27.1077 11.1679 26.6482 11.6274C26.1887 12.0869 25.5704 12.3526 24.9207 12.3697C24.2711 12.3867 23.6396 12.1539 23.1566 11.7191L17.5488 6.11023L8.65905 15.0042V15.0032ZM17.5488 12.4637C17.2151 12.4635 16.8846 12.529 16.5762 12.6565C16.2678 12.784 15.9876 12.971 15.7515 13.2068C15.5154 13.4426 15.328 13.7226 15.2001 14.0309C15.0722 14.3391 15.0063 14.6695 15.0061 15.0032C15.0059 15.3369 15.0714 15.6673 15.1989 15.9757C15.3264 16.2841 15.5134 16.5643 15.7492 16.8004C15.985 17.0366 16.265 17.2239 16.5732 17.3518C16.8815 17.4797 17.2119 17.5456 17.5455 17.5458C18.2196 17.5463 18.8663 17.2789 19.3432 16.8026C19.8202 16.3262 20.0883 15.6799 20.0888 15.0058C20.0892 14.3318 19.8218 13.6851 19.3455 13.2082C18.8691 12.7312 18.2228 12.4631 17.5488 12.4626V12.4637Z" fill="#B4CBCC"/>
</svg>
