<svg width="250" height="130" viewBox="0 0 250 130" fill="none" xmlns="http://www.w3.org/2000/svg">
<rect width="250" height="130" rx="6" fill="white"/>
<g clip-path="url(#clip0_3835:28524)">
<path d="M174.867 92.9774C174.199 93.0043 173.537 92.8373 172.96 92.4963C172.716 92.342 172.516 92.125 172.383 91.8674C172.25 91.6098 172.187 91.321 172.201 91.0308V81.4937H173.459C173.683 81.4939 173.898 81.5837 174.056 81.7433C174.215 81.903 174.304 82.1196 174.305 82.3455V90.7452C174.316 91.0257 174.432 91.2914 174.63 91.4889C174.728 91.5904 174.847 91.6701 174.978 91.7229C175.108 91.7756 175.248 91.8003 175.389 91.7952H175.628C175.673 91.7983 175.715 91.8177 175.747 91.8498C175.779 91.8819 175.798 91.9246 175.801 91.97V92.9983L174.868 92.9763L174.867 92.9774Z" fill="#B4CBCC"/>
<path d="M147.753 92.9774C146.452 92.9774 145.389 92.6273 144.586 91.9274C144.203 91.6128 143.905 91.2066 143.718 90.7458C143.517 90.1252 143.429 89.473 143.458 88.8208C143.431 88.1687 143.519 87.5168 143.718 86.8959C143.896 86.4485 144.187 86.0562 144.563 85.7585C145.366 85.0586 146.429 84.7085 147.73 84.7085C149.032 84.7085 150.094 85.0586 150.897 85.7585C151.268 86.0607 151.559 86.4516 151.742 86.8959C151.94 87.5172 152.028 88.1687 152.002 88.8208C152.032 89.473 151.943 90.1252 151.742 90.7458C151.555 91.2066 151.257 91.6128 150.874 91.9274C150.117 92.6273 149.055 92.9774 147.753 92.9774ZM147.753 85.9121C146.321 85.9121 145.605 86.8964 145.605 88.8434C145.605 90.812 146.321 91.7963 147.753 91.7963C149.185 91.7963 149.9 90.812 149.9 88.8651C149.9 86.8964 149.163 85.9121 147.753 85.9121Z" fill="#B4CBCC"/>
<path d="M156.733 92.9774C155.648 92.9897 154.584 92.6776 153.675 92.0805C153.527 91.9554 153.367 91.8454 153.198 91.7524C153.172 91.7362 153.15 91.7137 153.135 91.687C153.12 91.6603 153.111 91.6301 153.111 91.5993V81.4937H154.392C154.615 81.4976 154.827 81.5886 154.985 81.7475C155.143 81.9063 155.233 82.1207 155.238 82.3455V85.2996L155.628 85.0798C156.206 84.8172 156.838 84.6973 157.472 84.73C158.838 84.73 159.88 85.1454 160.574 85.9547C161.181 86.6766 161.485 87.6392 161.485 88.8203C161.485 90.0014 161.138 90.9637 160.443 91.6639C159.64 92.5399 158.382 92.9774 156.733 92.9774ZM156.951 85.9121C156.37 85.9418 155.807 86.1309 155.324 86.459L155.238 86.5027V91.2495L155.324 91.3149C155.812 91.6212 156.377 91.7806 156.951 91.7744C157.311 91.7881 157.668 91.7039 157.985 91.5308C158.302 91.3576 158.567 91.1018 158.752 90.7901C159.121 90.202 159.309 89.5171 159.294 88.8214C159.293 86.8964 158.49 85.9121 156.95 85.9121H156.951Z" fill="#B4CBCC"/>
<path d="M166.494 92.9554C164.108 92.9554 162.611 91.3805 162.611 88.8213C162.611 86.2838 164.086 84.709 166.451 84.709C167.279 84.6861 168.092 84.9315 168.772 85.4092L168.902 85.4965V84.8623H170.572C170.595 84.862 170.618 84.8663 170.639 84.8749C170.66 84.8836 170.679 84.8965 170.696 84.9128C170.712 84.9291 170.725 84.9485 170.733 84.9698C170.742 84.9912 170.746 85.014 170.746 85.0371V92.8015H168.881V92.1016L168.751 92.2115C168.114 92.7283 167.311 92.9928 166.494 92.9554V92.9554ZM166.928 86.1091C165.431 86.1091 164.542 87.2682 164.542 88.8213C164.542 90.3745 165.431 91.5775 166.928 91.5775C167.284 91.5998 167.64 91.5492 167.975 91.4289C168.311 91.3085 168.619 91.1209 168.88 90.8774L168.902 90.8557V86.8747L168.88 86.8527C168.425 86.3278 167.752 86.1091 166.928 86.1091V86.1091Z" fill="#B4CBCC"/>
<path d="M89.4248 92.868V81.4719H98.8173V82.1944C98.8174 82.3294 98.7911 82.4632 98.7399 82.588C98.6887 82.7128 98.6136 82.8262 98.5189 82.9217C98.4242 83.0172 98.3117 83.0929 98.1879 83.1445C98.0641 83.1961 97.9315 83.2226 97.7975 83.2224H91.7675V86.2847H97.7975V88.0346H91.7675V91.097H97.7975C97.9315 91.0968 98.0642 91.1233 98.188 91.1749C98.3117 91.2266 98.4242 91.3023 98.5189 91.3978C98.6136 91.4933 98.6887 91.6068 98.7399 91.7316C98.7911 91.8564 98.8174 91.9902 98.8173 92.1253V92.8469L89.4248 92.8688V92.868Z" fill="#B4CBCC"/>
<path d="M112.309 81.4718H110.097C109.897 81.4694 109.699 81.5136 109.518 81.6008C109.338 81.688 109.179 81.8159 109.056 81.9747L106.388 85.3651L103.72 81.9966C103.596 81.8378 103.438 81.7098 103.257 81.6226C103.077 81.5353 102.879 81.4912 102.678 81.4935H100.466L104.956 87.1818L100.466 92.8701H102.678C102.879 92.8724 103.077 92.8282 103.257 92.7409C103.438 92.6537 103.596 92.5257 103.72 92.3669L106.388 88.9984L109.077 92.3889C109.204 92.544 109.363 92.6693 109.543 92.7562C109.723 92.8431 109.919 92.8895 110.119 92.8921H112.331L107.841 87.2038L112.309 81.4718Z" fill="#B4CBCC"/>
<path d="M82.0715 91.665L85.1509 86.2403V92.8461H87.4944V81.45H86.0398C85.8136 81.4475 85.5911 81.5073 85.3962 81.6229C85.2013 81.7386 85.0413 81.9057 84.9337 82.1062L81.2461 88.8871L77.5586 82.1062C77.4508 81.9057 77.2909 81.7386 77.0959 81.6229C76.9009 81.5073 76.6784 81.4475 76.4522 81.45H75V92.8461H77.3436V86.2403L80.4229 91.665H82.0715Z" fill="#B4CBCC"/>
<path d="M118.426 92.9994C117.657 93.0155 116.892 92.8772 116.176 92.5924C115.461 92.3076 114.808 91.8821 114.257 91.3406C113.706 90.7991 113.267 90.1525 112.966 89.4383C112.665 88.7242 112.508 87.9568 112.504 87.1808C112.504 85.3872 113.047 83.8998 114.066 82.8717C115.086 81.8654 116.561 81.3186 118.317 81.3186C120.378 81.3186 122.005 82.0405 123.176 83.4403L122.439 84.0748C122.213 84.2671 121.928 84.3761 121.633 84.384C121.337 84.3919 121.048 84.2983 120.812 84.1185C120.114 83.6074 119.266 83.3457 118.404 83.3749C116.105 83.3749 114.738 84.7747 114.738 87.1372C114.738 89.5213 116.148 90.9868 118.404 90.9868C119.265 91.0088 120.11 90.7478 120.812 90.2432C121.048 90.0636 121.337 89.9702 121.633 89.9781C121.928 89.9861 122.212 90.0949 122.439 90.2869L123.176 90.9214C122.005 92.2992 120.444 92.9994 118.426 92.9994Z" fill="#B4CBCC"/>
<path d="M132.851 92.9993C129.207 92.9993 126.951 90.768 126.951 87.1808C126.951 83.5936 129.207 81.3625 132.807 81.3625C134.543 81.3625 135.996 81.8654 137.124 82.8934L136.582 83.5059C136.463 83.6359 136.319 83.7398 136.158 83.8113C135.998 83.8828 135.824 83.9204 135.649 83.9217C135.454 83.9224 135.26 83.8774 135.085 83.7904C134.378 83.4348 133.597 83.2549 132.807 83.2655C130.464 83.2655 129.011 84.7747 129.011 87.2028C129.011 89.6526 130.53 91.1618 132.959 91.1618C134.131 91.1618 135.042 90.942 135.714 90.4619L135.758 90.4399V88.0995H133.176V87.333C133.176 87.198 133.202 87.0642 133.254 86.9395C133.305 86.8147 133.38 86.7013 133.475 86.6058C133.569 86.5103 133.682 86.4346 133.806 86.383C133.929 86.3314 134.062 86.3049 134.196 86.305H137.384C137.429 86.3081 137.472 86.3276 137.503 86.3597C137.535 86.3919 137.555 86.4347 137.558 86.4801V91.5328C136.452 92.4962 134.868 92.9993 132.851 92.9993Z" fill="#B4CBCC"/>
<path d="M141.744 92.9774C141.076 93.0043 140.414 92.8373 139.837 92.4963C139.593 92.342 139.393 92.125 139.26 91.8674C139.127 91.6098 139.064 91.321 139.078 91.0308V81.4937H140.336C140.56 81.4942 140.774 81.5842 140.932 81.7438C141.091 81.9035 141.18 82.1198 141.181 82.3455V90.7452C141.192 91.0257 141.308 91.2914 141.506 91.4889C141.604 91.5904 141.723 91.6701 141.853 91.7229C141.984 91.7756 142.124 91.8003 142.265 91.7952H142.504C142.549 91.7983 142.591 91.8177 142.623 91.8498C142.655 91.8819 142.674 91.9246 142.677 91.97V92.9983L141.744 92.9763V92.9774Z" fill="#B4CBCC"/>
<path fill-rule="evenodd" clip-rule="evenodd" d="M102.676 73.9377H136.108C136.586 73.9372 137.055 73.8101 137.468 73.5692C137.882 73.3283 138.225 72.982 138.464 72.565C138.703 72.1481 138.83 71.6751 138.83 71.1935C138.831 70.7119 138.706 70.2386 138.468 69.821V69.8191L136.897 67.075L121.759 40.6219L121.744 40.5964L121.731 40.573C121.084 39.4523 120.148 38.5288 119.023 37.9004C117.898 37.272 116.626 36.9621 115.34 37.0034C114.055 37.0447 112.805 37.4357 111.722 38.1351C110.638 38.8345 109.763 39.8161 109.188 40.9762V40.9762L96.4839 63.1657L96.4891 63.1762C95.9073 64.2021 95.5852 65.3569 95.5513 66.5382C95.5174 67.7196 95.7727 68.8912 96.2946 69.9494C96.8166 71.0076 97.589 71.9198 98.5437 72.6053C99.4984 73.2908 100.606 73.7286 101.768 73.8798C101.768 73.8798 102.142 73.9284 102.676 73.9377Z" fill="#B4CBCC"/>
<path fill-rule="evenodd" clip-rule="evenodd" d="M129.026 47.7863C128.091 46.1355 127.843 44.1785 128.335 42.3435C128.828 40.5085 130.02 38.9447 131.653 37.9943C133.286 37.0438 135.225 36.784 137.047 37.2716C138.869 37.7593 140.426 38.9548 141.376 40.5965L154.297 63.1647C154.767 63.9826 155.073 64.8858 155.197 65.8229C155.32 66.76 155.26 67.7125 155.018 68.6259C154.776 69.5393 154.358 70.3956 153.788 71.1459C153.217 71.8962 152.506 72.5257 151.694 72.9984C150.882 73.4711 149.986 73.7777 149.056 73.9006C148.127 74.0236 147.182 73.9604 146.277 73.7149C145.372 73.4694 144.523 73.0462 143.78 72.4696C143.037 71.8931 142.415 71.1744 141.947 70.3548L129.026 47.7863Z" fill="#B4CBCC"/>
</g>
<defs>
<clipPath id="clip0_3835:28524">
<rect width="100.8" height="56" fill="white" transform="translate(75 37)"/>
</clipPath>
</defs>
</svg>
