<svg width="250" height="130" viewBox="0 0 250 130" fill="none" xmlns="http://www.w3.org/2000/svg">
<rect width="250" height="130" rx="6" fill="white"/>
<path d="M74.8252 51.0689C78.9769 49.0574 84.0298 49.0091 88.1976 50.9885C93.0252 53.177 96.5333 58.0206 97.0965 63.2827C97.1126 63.4919 97.1447 63.7011 97.193 63.8942C97.3057 65.4068 97.193 66.9356 96.8712 68.416C95.0528 76.7517 86.8781 82.0781 78.5263 80.3885C75.0827 79.7448 71.9286 77.8137 69.6758 75.1586C65.6045 70.3149 64.8643 63.4919 67.7769 57.8758C69.3378 54.9149 71.816 52.5333 74.8252 51.0689ZM76.6597 56.8137C76.6436 57.9402 76.6597 59.0827 76.6436 60.2091C79.9264 60.2091 83.2091 60.1931 86.4758 60.2252C86.4758 59.0827 86.4919 57.9563 86.4597 56.8137C83.2091 56.8137 79.9264 56.7976 76.6597 56.8137ZM73.2804 60.2413C73.2965 63.4919 73.2804 66.7586 73.2804 70.0091C74.4068 70.0252 75.5172 69.9931 76.6436 70.0252C76.6436 66.7586 76.6758 63.4919 76.6275 60.2252C75.5011 60.1931 74.3907 60.177 73.2804 60.2413ZM86.4919 60.2413C86.508 63.4919 86.508 66.7425 86.4919 69.9931C87.6183 70.0091 88.7447 69.9931 89.8873 69.9931C89.8873 66.7425 89.8712 63.4758 89.8873 60.2252C88.7608 60.2091 87.6183 60.2091 86.4919 60.2252V60.2413ZM76.6597 70.0574C76.6758 71.1839 76.6597 72.3103 76.6758 73.4528C79.9424 73.4528 83.2252 73.4367 86.4919 73.4528C86.5241 72.3264 86.508 71.1839 86.508 70.0574C83.2091 70.0091 79.9264 69.9931 76.6597 70.0574ZM164.313 54.0942C164.313 53.177 165.037 52.4206 165.857 52.1149C166.469 52.0988 167.161 52.0022 167.692 52.4206C168.802 53.0804 169.044 54.7701 168.159 55.7195C167.611 56.3471 166.694 56.4919 165.922 56.3149C164.892 56.1379 164.184 55.0919 164.313 54.0942ZM118.998 52.2758C120.205 52.2758 121.428 52.2758 122.65 52.2758C122.65 55.8965 122.65 59.5333 122.65 63.154C122.956 63.154 123.278 63.154 123.6 63.154C125.161 61.577 126.69 59.9678 128.202 58.3425C129.715 58.3425 131.244 58.3425 132.756 58.3425C131.517 59.7103 130.133 60.9494 128.846 62.285C127.929 63.1379 127.092 64.0551 126.159 64.8919C128.588 67.3057 131.067 69.6712 133.513 72.0689C131.887 72.0689 130.262 72.0689 128.653 72.0689C127.011 70.2988 125.354 68.5448 123.745 66.7425C123.391 66.7264 123.021 66.7264 122.667 66.7264C122.683 68.4965 122.667 70.2827 122.683 72.0528C121.46 72.0689 120.253 72.0528 119.03 72.0528C118.998 65.4551 118.998 58.8574 118.998 52.2758ZM138.678 58.0045C139.917 57.7793 141.188 58.0045 142.363 58.4068C144.407 59.1632 145.968 60.9333 146.628 62.9931C145.485 63.3793 144.278 63.5885 143.136 63.9908C142.83 63.0574 142.315 62.1241 141.414 61.6574C140.207 61.1264 138.823 61.1747 137.664 61.8022C135.653 63.0413 135.331 66.1149 136.795 67.9011C138.002 69.3172 140.287 69.5264 141.832 68.5287C142.46 68.0137 143.007 67.3379 143.168 66.5333C144.342 66.7264 145.501 67.016 146.628 67.4183C146.177 68.754 145.485 70.0574 144.342 70.9264C141.526 73.2275 137.005 73.0023 134.462 70.3954C133.77 69.7034 133.223 68.8827 132.869 67.9816C132.772 67.5954 132.676 67.2252 132.563 66.8551C132.483 66.5816 132.579 66.2275 132.354 66.0023L132.483 65.9218C132.322 65.5517 132.37 65.1333 132.402 64.7471C132.531 63.6206 132.756 62.462 133.384 61.4804C134.494 59.5333 136.473 58.2459 138.678 58.0045ZM174.676 59.5494C176.156 58.085 178.425 57.6344 180.421 58.085C181.788 58.3747 182.963 59.2436 183.655 60.4505C184.234 61.3356 184.428 62.3816 184.476 63.4275C184.476 66.308 184.476 69.1885 184.476 72.0689C183.269 72.0689 182.078 72.0689 180.871 72.0689C180.871 69.5103 180.871 66.9517 180.871 64.3931C180.791 63.6045 180.662 62.7195 180.067 62.1402C179.375 61.2873 178.119 61.1425 177.122 61.416C176.108 61.6091 175.384 62.5103 175.062 63.4436C174.869 64.1839 174.756 64.9402 174.708 65.6965C174.676 67.8206 174.74 69.9609 174.676 72.085C173.485 72.0528 172.278 72.085 171.087 72.0689C171.087 67.4988 171.087 62.9287 171.087 58.3586C172.294 58.3586 173.485 58.3586 174.692 58.3586C174.692 58.7609 174.692 59.1632 174.692 59.5816L174.676 59.5494ZM108.377 58.1011C110.195 57.8597 112.126 58.1333 113.687 59.1471C115.361 60.1287 116.503 61.8827 116.873 63.7816C116.97 64.7471 116.97 65.7126 116.873 66.6781C116.552 68.3034 115.667 69.7839 114.363 70.8137C111.306 73.2597 106.317 72.9057 103.759 69.8804C101.441 67.2252 101.538 62.8482 104 60.3057C105.175 59.0988 106.703 58.3264 108.377 58.1011ZM109.214 61.1747C107.701 61.3356 106.398 62.3333 105.867 63.7816C105.432 65.1011 105.593 66.662 106.478 67.7724C107.041 68.5609 107.959 69.0436 108.892 69.2528C110.067 69.462 111.273 69.0919 112.159 68.2873C113.896 66.7425 113.88 63.685 112.126 62.1563C111.322 61.4482 110.276 61.0942 109.214 61.1747ZM153.917 58.1011C155.719 57.8597 157.667 58.1172 159.228 59.131C160.949 60.177 162.14 61.9149 162.462 63.8942C162.768 65.5839 162.478 67.3218 161.657 68.8344C160.644 70.5563 158.97 71.7793 157.023 72.1977C154.818 72.6965 152.34 72.3264 150.506 70.9425C149.154 70.0091 148.253 68.5126 147.85 66.9356C147.577 65.3103 147.609 63.5402 148.382 62.0275C149.379 59.8873 151.584 58.4229 153.917 58.1011ZM154.062 61.3195C152.742 61.6735 151.713 62.7195 151.375 64.0551C151.101 65.0528 151.182 66.0988 151.6 67.0482C152.324 68.5609 153.917 69.4459 155.575 69.285C157.554 69.0758 159.147 67.177 159.034 65.1977C159.099 63.7494 158.246 62.3494 157.007 61.6252C156.106 61.1747 155.044 60.9816 154.062 61.3195ZM164.651 58.3425C165.873 58.3425 167.096 58.3264 168.319 58.3586C168.319 62.9287 168.319 67.4827 168.319 72.0528C167.096 72.0689 165.873 72.0528 164.651 72.0689C164.651 67.4827 164.651 62.9126 164.651 58.3425Z" fill="#B4CBCC"/>
</svg>
