<svg xmlns:xlink="http://www.w3.org/1999/xlink" data-v-4115bba7="" width="113" height="24" viewBox="0 0 113 24" fill="none" xmlns="http://www.w3.org/2000/svg"><path d="M31.1553 17.03L31.1677 7.01135L35.5714 7.01757C37.677 7.01757 38.8447 8.46477 38.8447 10.1604C38.8447 11.8561 37.6522 13.2971 35.5652 13.2971L32.9193 13.2909L32.9131 17.03H31.1553ZM35.3292 8.56415H32.9255L32.9193 11.7505H35.323C36.3168 11.7505 37.0373 11.1232 37.0373 10.1604C37.0373 9.19769 36.3168 8.56415 35.3292 8.56415Z" fill="#B4CBCC"></path> <path d="M44.9751 6.86329C47.9813 6.86951 50.0931 9.06205 50.0931 12.0496C50.0869 15.0372 47.9689 17.2297 44.9627 17.2235C41.9565 17.2173 39.8447 15.0248 39.8447 12.0372C39.8509 9.04963 41.9689 6.85708 44.9751 6.86329ZM44.9689 8.4223C42.9441 8.4223 41.6459 9.96267 41.6459 12.0372C41.6459 14.0931 42.9316 15.6583 44.9627 15.6583C46.9751 15.6583 48.2857 14.0993 48.2857 12.0434C48.2919 9.97509 46.9813 8.42851 44.9689 8.4223Z" fill="#B4CBCC"></path> <path d="M51.7826 17.0559L51.795 7.03723H53.5528L53.5404 15.5093L57.9565 15.5155V17.0621L51.7826 17.0559Z" fill="#B4CBCC"></path> <path d="M63.7764 6.88814C66.7826 6.89435 68.8944 9.08689 68.8944 12.0745C68.8882 15.062 66.7702 17.2546 63.764 17.2484C60.7578 17.2422 58.646 15.0496 58.646 12.062C58.6522 9.07447 60.7764 6.88192 63.7764 6.88814ZM63.7764 8.44714C61.7516 8.44714 60.4534 9.98751 60.4534 12.062C60.4534 14.1179 61.7392 15.6832 63.7702 15.6832C65.7826 15.6832 67.0932 14.1242 67.0932 12.0683C67.0932 9.99994 65.7889 8.45336 63.7764 8.44714Z" fill="#B4CBCC"></path> <path d="M77.5715 17.0869L72.3541 9.78251L72.3479 17.0806H70.5901L70.6025 7.06201H72.4038L77.5156 14.1738L77.5218 7.06823H79.2795L79.2671 17.0869H77.5715Z" fill="#B4CBCC"></path> <path d="M81.3976 17.0931L81.41 7.07446H83.1677L83.1553 17.0931H81.3976Z" fill="#B4CBCC"></path> <path d="M85.2919 17.0993L85.3043 7.08069L92.1676 7.0869V8.63348L87.0621 8.62727L87.0558 11.2235L92.0558 11.2298V12.7763L87.0558 12.7701L87.0496 15.5465L92.1552 15.5527V17.0993H85.2919Z" fill="#B4CBCC"></path> <path d="M100.658 17.1179L97.8572 13.1924L95.0435 17.1117H92.9379L96.7019 11.9812L93.1802 7.09305H95.2858L97.8634 10.7763L100.435 7.09926H102.553L99.0311 11.9626L102.764 17.1179H100.658Z" fill="#B4CBCC"></path> <path d="M20.7887 6.01854L20.7825 12.0123L15.59 9.01233L10.4036 6.00612L15.6024 3.01854L20.7949 0.0247498L20.7887 6.01854Z" fill="#B4CBCC"></path> <path d="M10.3974 11.9999L10.3912 17.9937L5.20489 14.9937L0.0185566 11.9875L5.2111 8.99992L10.4037 6.00613L10.3974 11.9999Z" fill="#B4CBCC"></path> <path d="M0.0239518 5.99376L0.0301634 -3.05176e-05L5.2165 3.00618L10.4028 6.00618L5.21029 8.99997L0.0177402 11.9875L0.0239518 5.99376Z" fill="#B4CBCC"></path> <path d="M0.00621061 17.9813L0.0186328 11.9875L5.20497 14.9938L10.3913 17.9938L5.19876 20.9875L0 23.9751L0.00621061 17.9813Z" fill="#B4CBCC"></path> <path d="M15.59 9.01235L10.4037 6.00613L10.3974 11.9999L10.3912 17.9937L15.5776 20.9999L20.7639 23.9999L20.7701 18.0061L20.7825 12.0123L15.59 9.01235Z" fill="#B4CBCC"></path></svg>