<svg width="250" height="130" viewBox="0 0 250 130" fill="none" xmlns="http://www.w3.org/2000/svg">
<rect width="250" height="130" rx="6" fill="white"/>
<g clip-path="url(#clip0_4514_32417)">
<path d="M81.6947 60.336V51.0081H63V69.6639H72.3474V60.336H81.6947Z" fill="#B4CBCC"/>
<path d="M81.6945 60.3362V69.6641H72.3472V78.9921H91.0419V60.3362H81.6945Z" fill="#B4CBCC"/>
<path d="M167.535 60.4917H163.433V75.0018H167.535H169.301V73.2399H167.535V60.4917Z" fill="#B4CBCC"/>
<path d="M165.457 59.4033C166.652 59.4033 167.638 58.4187 167.638 57.2268C167.638 56.0349 166.652 55.0503 165.457 55.0503C164.263 55.0503 163.276 56.0349 163.276 57.2268C163.276 58.4187 164.263 59.4033 165.457 59.4033Z" fill="#B4CBCC"/>
<path d="M184.568 73.2398V65.5701C184.568 63.9118 184.153 62.5645 183.27 61.6317C182.387 60.6989 181.193 60.1807 179.635 60.1807C179.115 60.1807 178.648 60.2325 178.233 60.388C177.817 60.4916 177.454 60.6989 177.09 60.9062C176.727 61.1135 176.415 61.3726 176.155 61.6317C175.896 61.8908 175.636 62.2017 175.376 62.5126V60.4398H171.274V74.9499H175.376V66.9175C175.376 65.9329 175.584 65.2074 176.051 64.6892C176.519 64.1709 177.142 63.9637 177.921 63.9637C178.7 63.9637 179.323 64.2228 179.79 64.6892C180.206 65.2074 180.465 65.9329 180.465 66.9175V75.0017H184.568H186.334V73.2398H184.568Z" fill="#B4CBCC"/>
<path d="M131.859 62.0979C131.184 61.4242 130.353 60.906 129.366 60.4914C128.432 60.1287 127.393 59.9214 126.251 59.9214C125.108 59.9214 124.07 60.1287 123.135 60.4914C122.2 60.906 121.369 61.4242 120.642 62.0979C119.915 62.7716 119.396 63.6007 118.98 64.4817C118.565 65.4145 118.409 66.3473 118.409 67.3837V67.4356C118.409 68.472 118.617 69.4566 118.98 70.3894C119.396 71.3222 119.915 72.0995 120.642 72.7732C121.317 73.4469 122.148 73.9651 123.135 74.3797C124.07 74.7424 125.108 74.9497 126.251 74.9497C127.393 74.9497 128.432 74.7424 129.366 74.3797C130.301 73.9651 131.132 73.4469 131.859 72.7732C132.586 72.0995 133.105 71.2704 133.521 70.3894C133.936 69.4566 134.092 68.5238 134.092 67.4356V67.3837C134.092 66.3473 133.884 65.3627 133.521 64.4299C133.105 63.6007 132.534 62.7716 131.859 62.0979ZM130.041 67.5392C130.041 68.0574 129.938 68.5756 129.782 69.042C129.626 69.5084 129.366 69.923 129.055 70.2858C128.743 70.6485 128.328 70.9076 127.86 71.1149C127.393 71.3222 126.874 71.4258 126.303 71.4258C125.731 71.4258 125.212 71.3222 124.745 71.1149C124.277 70.9076 123.862 70.5967 123.55 70.2339C123.187 69.8712 122.927 69.4566 122.771 68.9902C122.615 68.5238 122.512 68.0056 122.512 67.4874V67.4356C122.512 66.9173 122.615 66.3991 122.771 65.9327C122.927 65.4663 123.187 65.0517 123.498 64.689C123.81 64.3262 124.225 64.0671 124.693 63.8598C125.16 63.6526 125.679 63.5489 126.251 63.5489C126.822 63.5489 127.341 63.6526 127.808 63.8598C128.276 64.0671 128.691 64.3781 129.003 64.7408C129.366 65.1036 129.626 65.5181 129.782 65.9845C129.938 66.4509 130.041 66.9692 130.041 67.4874V67.5392Z" fill="#B4CBCC"/>
<path d="M149.463 62.0979C148.788 61.4242 147.957 60.906 146.97 60.4914C146.036 60.1287 144.997 59.9214 143.855 59.9214C142.712 59.9214 141.674 60.1287 140.739 60.4914C139.804 60.906 138.973 61.4242 138.246 62.0979C137.519 62.7716 137 63.6007 136.584 64.4817C136.169 65.4145 136.013 66.3473 136.013 67.3837V67.4356C136.013 68.472 136.221 69.4566 136.584 70.3894C137 71.3222 137.519 72.0995 138.246 72.7732C138.921 73.4469 139.752 73.9651 140.739 74.3797C141.674 74.7424 142.712 74.9497 143.855 74.9497C144.997 74.9497 146.036 74.7424 146.97 74.3797C147.905 73.9651 148.736 73.4469 149.463 72.7732C150.19 72.0995 150.709 71.2704 151.125 70.3894C151.54 69.4566 151.696 68.5238 151.696 67.4356V67.3837C151.696 66.3473 151.488 65.3627 151.125 64.4299C150.709 63.6007 150.19 62.7716 149.463 62.0979ZM147.645 67.5392C147.645 68.0574 147.542 68.5756 147.386 69.042C147.23 69.5084 146.97 69.923 146.659 70.2858C146.347 70.6485 145.932 70.9076 145.464 71.1149C144.997 71.3222 144.478 71.4258 143.907 71.4258C143.335 71.4258 142.816 71.3222 142.349 71.1149C141.881 70.9076 141.466 70.5967 141.154 70.2339C140.791 69.8712 140.531 69.4566 140.375 68.9902C140.219 68.5238 140.116 68.0056 140.116 67.4874V67.4356C140.116 66.9173 140.219 66.3991 140.375 65.9327C140.531 65.4663 140.791 65.0517 141.102 64.689C141.414 64.3262 141.829 64.0671 142.297 63.8598C142.764 63.6526 143.283 63.5489 143.855 63.5489C144.426 63.5489 144.945 63.6526 145.412 63.8598C145.88 64.0671 146.295 64.3781 146.607 64.7408C146.97 65.1036 147.23 65.5181 147.386 65.9845C147.542 66.4509 147.645 66.9692 147.645 67.4874V67.5392Z" fill="#B4CBCC"/>
<path d="M114.514 57.9004C113.891 57.3304 113.112 56.864 112.229 56.5531C111.347 56.2421 110.308 56.0867 109.166 56.0867H101.48V73.2397H99.7144V75.0016H101.48H105.634V69.3531H108.802C109.841 69.3531 110.879 69.1976 111.814 68.9385C112.749 68.6794 113.58 68.2648 114.255 67.6948C114.93 67.1247 115.501 66.451 115.916 65.6219C116.332 64.7927 116.488 63.8081 116.488 62.7199V62.668C116.488 61.6834 116.332 60.8025 115.968 60.0251C115.605 59.196 115.138 58.4705 114.514 57.9004ZM112.229 62.7717C112.229 63.6008 111.918 64.2745 111.347 64.7927C110.775 65.3628 109.945 65.6219 108.906 65.6219H105.582V59.8697H108.802C109.841 59.8697 110.672 60.1288 111.295 60.5952C111.918 61.0616 112.178 61.7871 112.178 62.7199V62.7717H112.229Z" fill="#B4CBCC"/>
<path d="M155.435 73.2397H153.669V75.0016H155.435H159.538V55.3093H155.435V73.2397Z" fill="#B4CBCC"/>
</g>
<defs>
<clipPath id="clip0_4514_32417">
<rect width="123.333" height="40" fill="white" transform="translate(63 45)"/>
</clipPath>
</defs>
</svg>
